opsz8_wght1000_wdth125.ufo
<glyph name="A" format="2">
	<unicode hex="0041"/>
	<advance width="1549"/>
	<outline>
		<contour>
			<point x="-79.9989013672" y="0" type="line"/>
			<point x="-77.9989013672" y="97.9951171875" type="line"/>
			<point x="150.0035400391" y="131.9951171875" type="line"/>
			<point x="391.9478759766" y="685.6072387695" type="line"/>
			<point x="716.1299438477" y="1487.5610351562" type="line"/>
			<point x="829.2046508789" y="1487.5610351562" type="line"/>
			<point x="1126.3355712891" y="671.6473388672" type="line"/>
			<point x="1381.521484375" y="131.9951171875" type="line"/>
			<point x="1546.5239257812" y="97.9951171875" type="line"/>
			<point x="1544.5239257812" y="0" type="line"/>
			<point x="980.4504394531" y="0" type="line"/>
			<point x="982.4504394531" y="97.9951171875" type="line"/>
			<point x="1186.4528808594" y="135.9951171875" type="line"/>
			<point x="959.4161376953" y="713" type="line"/>
			<point x="779" y="1132" type="line"/>
			<point x="742" y="1246" type="line"/>
			<point x="732" y="1246" type="line"/>
			<point x="695" y="1132" type="line"/>
			<point x="571.1851196289" y="719.7263793945" type="line"/>
			<point x="326.834777832" y="136.9951171875" type="line"/>
			<point x="536.8372192383" y="97.9951171875" type="line"/>
			<point x="534.8372192383" y="0" type="line"/>
		</contour>
		<contour>
			<point x="611.115234375" y="534.2023925781" type="line"/>
			<point x="757.4802856445" y="546.1011962891" type="line"/>
			<point x="808.0651245117" y="414.6335449219" type="line"/>
			<point x="607.115234375" y="381.2670898438" type="line"/>
		</contour>
		<contour>
			<point x="339.2421875" y="414.6335449219" type="line"/>
			<point x="382.2332763672" y="545.1011962891" type="line"/>
			<point x="611.115234375" y="534.2023925781" type="line"/>
			<point x="607.115234375" y="381.2670898438" type="line"/>
		</contour>
	</outline>
	<anchor name="bottom" x="735" y="0"/>
	<anchor name="ogonek" x="1318" y="0"/>
	<anchor name="tonos" x="492" y="1500"/>
	<anchor name="top" x="753" y="1500"/>
</glyph>
<glyph name="B" format="2">
	<unicode hex="0042"/>
	<advance width="1573"/>
	<outline>
		<contour>
			<point x="81.9946289062" y="0" type="line"/>
			<point x="81.9946289062" y="99.9951171875" type="line"/>
			<point x="289.9970703125" y="133.9951171875" type="line"/>
			<point x="291.9970703125" y="724" type="line"/>
			<point x="289.9970703125" y="1352.0048828125" type="line"/>
			<point x="81.9946289062" y="1386.0048828125" type="line"/>
			<point x="81.9946289062" y="1500" type="line"/>
			<point x="868.7281494141" y="1500" type="line" smooth="yes"/>
			<point x="1125.1409912109" y="1500"/>
			<point x="1379.7619018555" y="1312"/>
			<point x="1379.7619018555" y="1169" type="qcurve" smooth="yes"/>
			<point x="1379.7619018555" y="1034"/>
			<point x="1250.3937988281" y="866"/>
			<point x="862" y="831" type="qcurve"/>
			<point x="862" y="821" type="line"/>
			<point x="1274.348449707" y="809"/>
			<point x="1480.9572143555" y="628"/>
			<point x="1480.9572143555" y="444" type="qcurve" smooth="yes"/>
			<point x="1480.9572143555" y="257"/>
			<point x="1168.8906860352" y="1"/>
			<point x="912.9678955078" y="0" type="qcurve" smooth="yes"/>
		</contour>
		<contour>
			<point x="460.9965820312" y="151.5524291992" type="line"/>
			<point x="487.9965820312" y="131.5524291992" type="line"/>
			<point x="878.5361328125" y="131.5524291992" type="line" smooth="yes"/>
			<point x="1080.6323242188" y="131.5524291992"/>
			<point x="1264.7758789062" y="299.6646728516"/>
			<point x="1264.7758789062" y="432.5214233398" type="qcurve" smooth="yes"/>
			<point x="1264.7758789062" y="572.5211181641"/>
			<point x="1090.7546386719" y="736.0966186523"/>
			<point x="937.4682617188" y="736.0966186523" type="qcurve" smooth="yes"/>
			<point x="461.9965820312" y="736.0966186523" type="line"/>
			<point x="456.9965820312" y="726.0966186523" type="line"/>
		</contour>
		<contour>
			<point x="458.9965820312" y="877.8459472656" type="line"/>
			<point x="459.9965820312" y="859.8459472656" type="line"/>
			<point x="873.6489257812" y="859.8459472656" type="line" smooth="yes"/>
			<point x="1027.9591064453" y="859.8459472656"/>
			<point x="1164.5805664062" y="1007.7746582031"/>
			<point x="1164.5805664062" y="1135.5906982422" type="qcurve" smooth="yes"/>
			<point x="1164.5805664062" y="1246.8352661133"/>
			<point x="1018.6296386719" y="1365.9124755859"/>
			<point x="884.7241210938" y="1365.9124755859" type="qcurve" smooth="yes"/>
			<point x="478.9965820312" y="1365.9124755859" type="line"/>
			<point x="462.9965820312" y="1351.9124755859" type="line"/>
		</contour>
	</outline>
	<anchor name="bottom" x="614" y="0"/>
	<anchor name="top" x="614" y="1500"/>
</glyph>
<glyph name="D" format="2">
	<unicode hex="0044"/>
	<advance width="1622"/>
	<outline>
		<contour>
			<point x="82" y="0" type="line"/>
			<point x="82" y="100" type="line"/>
			<point x="290" y="135" type="line"/>
			<point x="292" y="754" type="line"/>
			<point x="290" y="1352" type="line"/>
			<point x="82" y="1386" type="line"/>
			<point x="82" y="1500" type="line"/>
			<point x="938" y="1500" type="line" smooth="yes"/>
			<point x="1259" y="1500"/>
			<point x="1538" y="1103"/>
			<point x="1538" y="777" type="qcurve" smooth="yes"/>
			<point x="1538" y="425"/>
			<point x="1235" y="0"/>
			<point x="898" y="0" type="qcurve" smooth="yes"/>
		</contour>
		<contour>
			<point x="468" y="108" type="line"/>
			<point x="502" y="102"/>
			<point x="752" y="93"/>
			<point x="827" y="93" type="qcurve" smooth="yes"/>
			<point x="1092" y="93"/>
			<point x="1320" y="454"/>
			<point x="1322" y="761" type="qcurve" smooth="yes"/>
			<point x="1324" y="1038"/>
			<point x="1099" y="1372"/>
			<point x="798" y="1372" type="qcurve" smooth="yes"/>
			<point x="748" y="1372"/>
			<point x="504" y="1361"/>
			<point x="468" y="1356" type="qcurve"/>
			<point x="466" y="754" type="line"/>
		</contour>
	</outline>
	<anchor name="bottom" x="686" y="0"/>
	<anchor name="center" x="438" y="754"/>
	<anchor name="top" x="686" y="1500"/>
	<anchor name="liga" x="1590" y="0"/>
</glyph>
<glyph name="I" format="2">
	<unicode hex="0049"/>
	<advance width="780"/>
	<outline>
		<contour>
			<point x="91.9946289062" y="0" type="line"/>
			<point x="91.9946289062" y="99.9951171875" type="line"/>
			<point x="299.9970703125" y="134.9951171875" type="line"/>
			<point x="301.9970703125" y="754" type="line"/>
			<point x="299.9970703125" y="1352.0048828125" type="line"/>
			<point x="91.9946289062" y="1386.0048828125" type="line"/>
			<point x="91.9946289062" y="1500" type="line"/>
			<point x="688.1626586914" y="1500" type="line"/>
			<point x="688.1626586914" y="1386.0048828125" type="line"/>
			<point x="480.1602172852" y="1352.0048828125" type="line"/>
			<point x="478.1602172852" y="754" type="line"/>
			<point x="480.1602172852" y="133.9951171875" type="line"/>
			<point x="688.1626586914" y="99.9951171875" type="line"/>
			<point x="688.1626586914" y="0" type="line"/>
		</contour>
	</outline>
	<anchor name="bottom" x="390" y="0"/>
	<anchor name="ogonek" x="526" y="0"/>
	<anchor name="top" x="390" y="1500"/>
	<anchor name="tonos" x="0" y="1500"/>
	<anchor name="yu_dash" x="380" y="755"/>
	<anchor name="_Yeru_I" x="82" y="0"/>
	<anchor name="liga" x="780" y="0"/>
</glyph>
<glyph name="J" format="2">
	<unicode hex="004A"/>
	<advance width="760"/>
	<outline>
		<contour>
			<point x="-54.2835693359" y="-194.9956054688" type="qcurve"/>
			<point x="-54.2835693359" y="-66.1997070312" type="line"/>
			<point x="-38.2016601562" y="-66.5997314453"/>
			<point x="35.0440673828" y="-64.7998046875"/>
			<point x="68.3609008789" y="-63.9998779297" type="qcurve" smooth="yes"/>
			<point x="181.8739624023" y="-59.0120849609"/>
			<point x="269.4968261719" y="46.0001220703"/>
			<point x="268.4968261719" y="189.0001220703" type="qcurve" smooth="yes"/>
			<point x="270.4968261719" y="674" type="line"/>
			<point x="268.4968261719" y="1352.0048828125" type="line"/>
			<point x="20.4943847656" y="1386.0048828125" type="line"/>
			<point x="20.4943847656" y="1500" type="line"/>
			<point x="681.3533325195" y="1500" type="line"/>
			<point x="670" y="1384" type="line"/>
			<point x="480" y="1350" type="line"/>
			<point x="455.3508911133" y="674" type="line"/>
			<point x="451.3508911133" y="259.0031738281" type="line" smooth="yes"/>
			<point x="451.3109130859" y="34.203125"/>
			<point x="249.5069580078" y="-207.9956054688"/>
			<point x="82.423034668" y="-207.9956054688" type="qcurve" smooth="yes"/>
			<point x="96.5122070312" y="-206.9956054688"/>
			<point x="-12.2016601562" y="-203.9956054688"/>
		</contour>
	</outline>
	<anchor name="bottom" x="376" y="-208"/>
	<anchor name="top" x="376" y="1500"/>
	<anchor name="_liga" x="0" y="0"/>
</glyph>
<glyph name="K" format="2">
	<unicode hex="004B"/>
	<advance width="1502"/>
	<outline>
		<contour>
			<point x="81.9946289062" y="0" type="line"/>
			<point x="81.9946289062" y="99.9951171875" type="line"/>
			<point x="289.9970703125" y="134.9951171875" type="line"/>
			<point x="291.9970703125" y="754" type="line"/>
			<point x="289.9970703125" y="1352.0048828125" type="line"/>
			<point x="81.9946289062" y="1386.0048828125" type="line"/>
			<point x="81.9946289062" y="1500" type="line"/>
			<point x="693.1626586914" y="1500" type="line"/>
			<point x="693.1626586914" y="1386.0048828125" type="line"/>
			<point x="470.1602172852" y="1352.0048828125" type="line"/>
			<point x="468.1602172852" y="754.8754272461" type="line"/>
			<point x="470.1602172852" y="134.9951171875" type="line"/>
			<point x="653.1626586914" y="99.9951171875" type="line"/>
			<point x="653.1626586914" y="0" type="line"/>
		</contour>
		<contour>
			<point x="389.1604614258" y="478.3425292969" type="line"/>
			<point x="389.1604614258" y="633.1825561523" type="line"/>
			<point x="1094.0909423828" y="1368.0048828125" type="line"/>
			<point x="885.0875244141" y="1387.0048828125" type="line"/>
			<point x="885.0875244141" y="1500" type="line"/>
			<point x="1518.8161010742" y="1500" type="line"/>
			<point x="1518.8161010742" y="1387.0048828125" type="line"/>
			<point x="1283.8129272461" y="1352.0048828125" type="line"/>
			<point x="780.9532470703" y="858.0797729492" type="line"/>
			<point x="733.7501831055" y="813.0797729492" type="line"/>
		</contour>
		<contour>
			<point x="658.8818969727" y="809.0928344727" type="line"/>
			<point x="762.2014160156" y="898.1242675781" type="line"/>
			<point x="1359.7073364258" y="134.9951171875" type="line"/>
			<point x="1549.7105102539" y="99.9951171875" type="line"/>
			<point x="1549.7105102539" y="0" type="line"/>
			<point x="955.1235961914" y="0" type="line"/>
			<point x="955.1235961914" y="99.9951171875" type="line"/>
			<point x="1110.1260375977" y="134.9951171875" type="line"/>
		</contour>
	</outline>
	<anchor name="bottom" x="812" y="0"/>
	<anchor name="top" x="770" y="1500"/>
</glyph>
<glyph name="L" format="2">
	<unicode hex="004C"/>
	<advance width="1375"/>
	<outline>
		<contour>
			<point x="123.9946289062" y="0" type="line"/>
			<point x="123.9946289062" y="99.9951171875" type="line"/>
			<point x="289.9970703125" y="136.9951171875" type="line"/>
			<point x="291.9970703125" y="754" type="line"/>
			<point x="289.9970703125" y="1352.0048828125" type="line"/>
			<point x="81.9946289062" y="1385.0048828125" type="line"/>
			<point x="81.9946289062" y="1500" type="line"/>
			<point x="672.1626586914" y="1500" type="line"/>
			<point x="672.1626586914" y="1386.0048828125" type="line"/>
			<point x="471.1602172852" y="1352.0048828125" type="line"/>
			<point x="470.1602172852" y="754" type="line"/>
			<point x="472.1602172852" y="140.0601806641" type="line"/>
			<point x="494.1602172852" y="116.0601806641" type="line"/>
			<point x="1129.6600952148" y="116.0601806641" type="line"/>
			<point x="1209.6600952148" y="428.0639648438" type="line"/>
			<point x="1362.1403198242" y="428.0639648438" type="line"/>
			<point x="1322.1403198242" y="0" type="line"/>
		</contour>
	</outline>
	<anchor name="bottom" x="705" y="0"/>
	<anchor name="centerright" x="928" y="750"/>
	<anchor name="top" x="632" y="1500"/>
	<anchor name="topright" x="784" y="1001"/>
	<anchor name="center" x="378" y="750"/>
	<anchor name="liga" x="1264" y="0"/>
</glyph>
<glyph name="M" format="2">
	<unicode hex="004D"/>
	<advance width="2041"/>
	<outline>
		<contour>
			<point x="81.9946289062" y="0" type="line"/>
			<point x="81.9946289062" y="99.9951171875" type="line"/>
			<point x="287.9970703125" y="134.9951171875" type="line"/>
			<point x="289.9970703125" y="754" type="line"/>
			<point x="287.9970703125" y="1353.0048828125" type="line"/>
			<point x="81.9946289062" y="1387.0048828125" type="line"/>
			<point x="81.9946289062" y="1500" type="line"/>
			<point x="568.9280395508" y="1500" type="line"/>
			<point x="819.4445800781" y="757.0491943359" type="line"/>
			<point x="1004" y="370" type="line"/>
			<point x="1046" y="256" type="line"/>
			<point x="1056" y="256" type="line"/>
			<point x="1098" y="370" type="line"/>
			<point x="1259.3466796875" y="897.4700927734" type="line"/>
			<point x="1479.8685302734" y="1500" type="line"/>
			<point x="1958.7429199219" y="1500" type="line"/>
			<point x="1958.7429199219" y="1387.0048828125" type="line"/>
			<point x="1761.7404785156" y="1353.0048828125" type="line"/>
			<point x="1759.7404785156" y="754" type="line"/>
			<point x="1761.7404785156" y="134.9951171875" type="line"/>
			<point x="1958.7429199219" y="99.9951171875" type="line"/>
			<point x="1958.7429199219" y="0" type="line"/>
			<point x="1407.7021484375" y="0" type="line"/>
			<point x="1407.7021484375" y="99.9951171875" type="line"/>
			<point x="1567.7045898438" y="134.9951171875" type="line"/>
			<point x="1570.7045898438" y="752" type="line"/>
			<point x="1646" y="1210" type="line"/>
			<point x="1650" y="1329" type="line"/>
			<point x="1640" y="1331" type="line"/>
			<point x="1601" y="1224" type="line"/>
			<point x="1347.8525390625" y="760.1279907227" type="line"/>
			<point x="1069.6764526367" y="-5" type="line"/>
			<point x="894.3103637695" y="-5" type="line"/>
			<point x="641.2532348633" y="675.6145629883" type="line"/>
			<point x="458" y="1229" type="line"/>
			<point x="418" y="1336" type="line"/>
			<point x="408" y="1334" type="line"/>
			<point x="413" y="1215" type="line"/>
			<point x="407.5212402344" y="754" type="line"/>
			<point x="409.5212402344" y="134.9951171875" type="line"/>
			<point x="556.5236816406" y="99.9951171875" type="line"/>
			<point x="556.5236816406" y="0" type="line"/>
		</contour>
	</outline>
	<anchor name="bottom" x="1025" y="0"/>
	<anchor name="top" x="1058" y="1500"/>
</glyph>
<glyph name="N" format="2">
	<unicode hex="004E"/>
	<advance width="1655"/>
	<outline>
		<contour>
			<point x="81.9946289062" y="0" type="line"/>
			<point x="81.9946289062" y="99.9951171875" type="line"/>
			<point x="289.9970703125" y="134.9951171875" type="line"/>
			<point x="291.9970703125" y="754" type="line"/>
			<point x="289.9970703125" y="1353.0048828125" type="line"/>
			<point x="81.9946289062" y="1387.0048828125" type="line"/>
			<point x="81.9946289062" y="1500" type="line"/>
			<point x="463.3016357422" y="1500" type="line"/>
			<point x="926.2445678711" y="801.8441772461" type="line"/>
			<point x="1148" y="412" type="line"/>
			<point x="1206" y="310" type="line"/>
			<point x="1215" y="313" type="line"/>
			<point x="1211" y="434" type="line"/>
			<point x="1243.4733886719" y="752.8181152344" type="line"/>
			<point x="1241.4733886719" y="1353.0048828125" type="line"/>
			<point x="1019.4709472656" y="1387.0048828125" type="line"/>
			<point x="1019.4709472656" y="1500" type="line"/>
			<point x="1586.6198730469" y="1500" type="line"/>
			<point x="1586.6198730469" y="1387.0048828125" type="line"/>
			<point x="1382.6174316406" y="1353.0048828125" type="line"/>
			<point x="1380.6174316406" y="728.8181152344" type="line"/>
			<point x="1386.6174316406" y="0" type="line"/>
			<point x="1230.6149291992" y="0" type="line"/>
			<point x="870.6627197266" y="576.512512207" type="line"/>
			<point x="472" y="1219" type="line"/>
			<point x="414" y="1321" type="line"/>
			<point x="405" y="1318" type="line"/>
			<point x="410" y="1198" type="line"/>
			<point x="430.9578857422" y="784.6364746094" type="line"/>
			<point x="432.9578857422" y="134.9951171875" type="line"/>
			<point x="605.9603271484" y="99.9951171875" type="line"/>
			<point x="605.9603271484" y="0" type="line"/>
		</contour>
	</outline>
	<anchor name="bottom" x="800" y="0"/>
	<anchor name="top" x="800" y="1500"/>
	<anchor name="engtail" x="1324" y="0"/>
	<anchor name="liga" x="1600" y="0"/>
</glyph>
<glyph name="O" format="2">
	<unicode hex="004F"/>
	<advance width="1675"/>
	<outline>
		<contour>
			<point x="81" y="743" type="qcurve" smooth="yes"/>
			<point x="81" y="1070.7658691406"/>
			<point x="496.7991333008" y="1519.5366210938"/>
			<point x="836.8828125" y="1519.5366210938" type="qcurve" smooth="yes"/>
			<point x="1194.9513549805" y="1519.5366210938"/>
			<point x="1593.6904296875" y="1099.7658691406"/>
			<point x="1593.6904296875" y="758" type="qcurve" smooth="yes"/>
			<point x="1593.6904296875" y="432.2341308594"/>
			<point x="1182.0154418945" y="-17.5366210938"/>
			<point x="842.8828125" y="-17.5366210938" type="qcurve" smooth="yes"/>
			<point x="483.0725097656" y="-17.5366210938"/>
			<point x="81" y="395.2341308594"/>
		</contour>
		<contour>
			<point x="272.8540039062" y="777" type="qcurve" smooth="yes"/>
			<point x="272.8540039062" y="431.4291381836"/>
			<point x="577.2864990234" y="124.9738769531"/>
			<point x="836.8828125" y="124.9738769531" type="qcurve" smooth="yes"/>
			<point x="1108.2884521484" y="124.9738769531"/>
			<point x="1395.8364257812" y="436.7557373047"/>
			<point x="1395.8364257812" y="755" type="qcurve" smooth="yes"/>
			<point x="1395.8364257812" y="1058.5708618164"/>
			<point x="1112.5981445312" y="1373.6177368164"/>
			<point x="834.8828125" y="1373.6177368164" type="qcurve" smooth="yes"/>
			<point x="562.8818359375" y="1373.6177368164"/>
			<point x="272.8540039062" y="1059.9993896484"/>
		</contour>
	</outline>
	<anchor name="bottom" x="832" y="0"/>
	<anchor name="center" x="832" y="750"/>
	<anchor name="ogonek" x="1064" y="0"/>
	<anchor name="top" x="832" y="1500"/>
	<anchor name="topright" x="1028" y="1500"/>
	<anchor name="tonos" x="140" y="1500"/>
	<anchor name="_yu_dash" x="169" y="755"/>
</glyph>
<glyph name="Q" format="2">
	<unicode hex="0051"/>
	<advance width="1675"/>
	<outline>
		<contour>
			<point x="81" y="734" type="qcurve" smooth="yes"/>
			<point x="81" y="1072.2683105469"/>
			<point x="493.6759033203" y="1522.0244140625"/>
			<point x="836.6948242188" y="1522.0244140625" type="qcurve" smooth="yes"/>
			<point x="1200.3282470703" y="1522.0244140625"/>
			<point x="1593.6904296875" y="1101.2683105469"/>
			<point x="1593.6904296875" y="756" type="qcurve" smooth="yes"/>
			<point x="1593.6904296875" y="440.7316894531"/>
			<point x="1197.958984375" y="-0.2878417969"/>
			<point x="835.9552001953" y="-0.2878417969" type="qcurve" smooth="yes"/>
			<point x="511.6499633789" y="-0.2878417969"/>
			<point x="81" y="380.7316894531"/>
		</contour>
		<contour>
			<point x="269.8540039062" y="749" type="qcurve" smooth="yes"/>
			<point x="267.8540039062" y="453.2454833984"/>
			<point x="586.2880859375" y="102.9701538086"/>
			<point x="835.6461181641" y="102.9701538086" type="qcurve" smooth="yes"/>
			<point x="1110.7185058594" y="102.9701538086"/>
			<point x="1393.8364257812" y="438.0618286133"/>
			<point x="1392.8364257812" y="756" type="qcurve" smooth="yes"/>
			<point x="1391.8364257812" y="1056.448425293"/>
			<point x="1107.0052490234" y="1376.1055297852"/>
			<point x="833.6948242188" y="1376.1055297852" type="qcurve" smooth="yes"/>
			<point x="560.5986328125" y="1376.1055297852"/>
			<point x="271.8540039062" y="1056.5708618164"/>
		</contour>
		<contour>
			<point x="654.169921875" y="-102.8538818359" type="qcurve"/>
			<point x="1218.0170288086" y="-278.5785522461" type="line"/>
			<point x="1291.852355957" y="-276.3251342773"/>
			<point x="1354.0598754883" y="-210.1949462891"/>
			<point x="1396.0451660156" y="-116.5468139648" type="qcurve"/>
			<point x="1499.048828125" y="-169.9287719727" type="line"/>
			<point x="1441.0112304688" y="-348.3648071289"/>
			<point x="1320.7908325195" y="-417.9215698242"/>
			<point x="1178.955871582" y="-417.9215698242" type="qcurve"/>
			<point x="565.7971801758" y="-214.4808959961" type="line"/>
			<point x="459.2532348633" y="-208.4808959961"/>
			<point x="387.1259765625" y="-239.0434570312"/>
			<point x="316.5775146484" y="-307.1771850586" type="qcurve"/>
			<point x="262.390625" y="-262.3284912109" type="line"/>
			<point x="376.7938232422" y="-130.1677856445"/>
			<point x="582.4412841797" y="-74.490234375"/>
		</contour>
		<contour>
			<point x="451.5275878906" y="-213.3801269531" type="line"/>
			<point x="854.4046630859" y="517.6198730469" type="line"/>
			<point x="965.533203125" y="445.1403808594" type="line"/>
			<point x="621.6561279297" y="-220.8596191406" type="line"/>
		</contour>
	</outline>
	<anchor name="bottom" x="832" y="0"/>
	<anchor name="top" x="823" y="1502"/>
</glyph>
<glyph name="R" format="2">
	<unicode hex="0052"/>
	<advance width="1514"/>
	<outline>
		<contour>
			<point x="81.9946289062" y="0" type="line"/>
			<point x="81.9946289062" y="99.9951171875" type="line"/>
			<point x="289.9970703125" y="134.9951171875" type="line"/>
			<point x="291.9970703125" y="730.7272949219" type="line"/>
			<point x="289.9970703125" y="1352.0048828125" type="line"/>
			<point x="81.9946289062" y="1386.0048828125" type="line"/>
			<point x="81.9946289062" y="1500" type="line"/>
			<point x="863.2767944336" y="1500" type="line" smooth="yes"/>
			<point x="1038.9169921875" y="1500"/>
			<point x="1306.6056518555" y="1294.3928833008"/>
			<point x="1306.6056518555" y="1101.3919677734" type="qcurve" smooth="yes"/>
			<point x="1306.6056518555" y="937.8978881836"/>
			<point x="1036.6904296875" y="675.3764648438"/>
			<point x="979.3060913086" y="675.3764648438" type="qcurve" smooth="yes"/>
			<point x="906.0670166016" y="675.3764648438"/>
			<point x="426.7875366211" y="683.3764648438"/>
			<point x="380.5241088867" y="689.3764648438" type="qcurve"/>
			<point x="380.5241088867" y="829.0838623047" type="line"/>
			<point x="874.6548461914" y="829.0838623047" type="line" smooth="yes"/>
			<point x="976.3694458008" y="829.0838623047"/>
			<point x="1097.2788696289" y="955.5635375977"/>
			<point x="1097.2788696289" y="1093.8286132812" type="qcurve" smooth="yes"/>
			<point x="1097.2788696289" y="1204.848815918"/>
			<point x="967.6967163086" y="1360.9544067383"/>
			<point x="869.1963500977" y="1360.9544067383" type="qcurve" smooth="yes"/>
			<point x="486.1602172852" y="1360.9544067383" type="line"/>
			<point x="466.1602172852" y="1343.9544067383" type="line"/>
			<point x="462.1602172852" y="662" type="line"/>
			<point x="464.1602172852" y="134.9951171875" type="line"/>
			<point x="676.1626586914" y="99.9951171875" type="line"/>
			<point x="676.1626586914" y="0" type="line"/>
		</contour>
		<contour>
			<point x="614" y="788" type="line"/>
			<point x="802" y="805" type="line"/>
			<point x="1192.2894287109" y="331.9951171875" type="line" smooth="yes"/>
			<point x="1224" y="173"/>
			<point x="1337.1868896484" y="104.9951171875"/>
			<point x="1488.0886230469" y="99.9951171875" type="qcurve"/>
			<point x="1488.0886230469" y="0" type="line"/>
			<point x="1214.2490844727" y="0" type="line"/>
			<point x="1106.2490844727" y="111" type="line"/>
		</contour>
	</outline>
	<anchor name="bottom" x="803" y="0"/>
	<anchor name="top" x="630" y="1500"/>
</glyph>
<glyph name="S" format="2">
	<unicode hex="0053"/>
	<advance width="1353"/>
	<outline>
		<contour>
			<point x="66.4982910156" y="-1" type="line"/>
			<point x="66.4982910156" y="471.2993774414" type="line"/>
			<point x="221.4982910156" y="471.2993774414" type="line"/>
			<point x="262.4985351562" y="310.2980957031" type="line" smooth="yes"/>
			<point x="279.7521972656" y="248.2736816406"/>
			<point x="570.7774047852" y="113.3914794922"/>
			<point x="758.3824462891" y="113.3914794922" type="qcurve" smooth="yes"/>
			<point x="934.1927490234" y="113.3914794922"/>
			<point x="1111.2115478516" y="305.0870361328"/>
			<point x="1111.2491455078" y="397.5562744141" type="qcurve" smooth="yes"/>
			<point x="1111.2867431641" y="545.8268432617"/>
			<point x="963.2013549805" y="644.0906982422"/>
			<point x="620.3950805664" y="718.9795532227" type="qcurve" smooth="yes"/>
			<point x="395.346496582" y="779.7774047852"/>
			<point x="126.1981201172" y="942.1637573242"/>
			<point x="126.1981201172" y="1118.2364501953" type="qcurve" smooth="yes"/>
			<point x="126.1981201172" y="1316.5818481445"/>
			<point x="487.9913330078" y="1519.5366210938"/>
			<point x="669.8587646484" y="1519.5366210938" type="qcurve" smooth="yes"/>
			<point x="760.7438964844" y="1519.5366210938"/>
			<point x="998.5978393555" y="1443.3996582031"/>
			<point x="1022.2462768555" y="1426" type="qcurve"/>
			<point x="1053.719909668" y="1500" type="line"/>
			<point x="1149.0209350586" y="1500" type="line"/>
			<point x="1149.0209350586" y="1051.7649536133" type="line"/>
			<point x="994.8209838867" y="1051.7649536133" type="line"/>
			<point x="958.020690918" y="1202.166809082" type="line" smooth="yes"/>
			<point x="939.5182495117" y="1268.6838989258"/>
			<point x="787.6544799805" y="1382.5329589844"/>
			<point x="634.7847290039" y="1382.5329589844" type="qcurve" smooth="yes"/>
			<point x="422.807800293" y="1382.5329589844"/>
			<point x="317.6147460938" y="1210.7640380859"/>
			<point x="317.65234375" y="1154.662109375" type="qcurve" smooth="yes"/>
			<point x="317.6899414062" y="1061.346862793"/>
			<point x="453.2248535156" y="952.0628051758"/>
			<point x="770.5653686523" y="873.1508178711" type="qcurve" smooth="yes"/>
			<point x="994.8069458008" y="817.8377685547"/>
			<point x="1313.1215209961" y="623.708984375"/>
			<point x="1313.1215209961" y="430.3272094727" type="qcurve" smooth="yes"/>
			<point x="1313.1215209961" y="253.6727294922"/>
			<point x="1035.5114135742" y="-17.048828125"/>
			<point x="767.4409179688" y="-17.048828125" type="qcurve" smooth="yes"/>
			<point x="585.1266479492" y="-17.048828125"/>
			<point x="229.2841796875" y="66.7391357422"/>
			<point x="212.4985351562" y="106" type="qcurve"/>
			<point x="157.6985473633" y="-1" type="line"/>
		</contour>
	</outline>
	<anchor name="bottom" x="599" y="0"/>
	<anchor name="top" x="514" y="1500"/>
</glyph>
<glyph name="T" format="2">
	<unicode hex="0054"/>
	<advance width="1560"/>
	<outline>
		<contour>
			<point x="70" y="1048" type="line"/>
			<point x="70" y="1500" type="line"/>
			<point x="1488" y="1500" type="line"/>
			<point x="1488" y="1052" type="line"/>
			<point x="1378" y="1048" type="line"/>
			<point x="1343" y="1384" type="line"/>
			<point x="883" y="1384" type="line"/>
			<point x="864" y="1364" type="line"/>
			<point x="863" y="754" type="line"/>
			<point x="866" y="136" type="line"/>
			<point x="1083" y="100" type="line"/>
			<point x="1083" y="0" type="line"/>
			<point x="473" y="0" type="line"/>
			<point x="473" y="100" type="line"/>
			<point x="692" y="136" type="line"/>
			<point x="694" y="754" type="line"/>
			<point x="692" y="1364" type="line"/>
			<point x="683" y="1384" type="line"/>
			<point x="215" y="1384" type="line"/>
			<point x="180" y="1048" type="line"/>
		</contour>
	</outline>
	<anchor name="bottom" x="644" y="0"/>
	<anchor name="center" x="644" y="750"/>
	<anchor name="top" x="644" y="1500"/>
	<anchor name="cy_descender" x="951" y="100"/>
</glyph>
<glyph name="U" format="2">
	<unicode hex="0055"/>
	<advance width="1919"/>
	<outline>
		<contour>
			<point x="69" y="1386" type="line"/>
			<point x="69" y="1500" type="line"/>
			<point x="640" y="1500" type="line"/>
			<point x="640" y="1386" type="line"/>
			<point x="443" y="1353" type="line"/>
			<point x="439" y="864" type="line"/>
			<point x="443" y="659" type="line" smooth="yes"/>
			<point x="448" y="386"/>
			<point x="670" y="107"/>
			<point x="960" y="107" type="qcurve" smooth="yes"/>
			<point x="1251" y="107"/>
			<point x="1507" y="382"/>
			<point x="1510" y="674" type="qcurve" smooth="yes"/>
			<point x="1512" y="864" type="line"/>
			<point x="1509" y="1352" type="line"/>
			<point x="1275" y="1386" type="line"/>
			<point x="1275" y="1500" type="line"/>
			<point x="1860" y="1500" type="line"/>
			<point x="1860" y="1386" type="line"/>
			<point x="1652" y="1352" type="line"/>
			<point x="1650" y="864" type="line"/>
			<point x="1652" y="669" type="line" smooth="yes"/>
			<point x="1655" y="367"/>
			<point x="1356" y="-19"/>
			<point x="957" y="-19" type="qcurve" smooth="yes"/>
			<point x="609" y="-19"/>
			<point x="267" y="307"/>
			<point x="267" y="636" type="qcurve" smooth="yes"/>
			<point x="267" y="864" type="line"/>
			<point x="266" y="1353" type="line"/>
		</contour>
	</outline>
	<anchor name="bottom" x="832" y="0"/>
	<anchor name="ogonek" x="1042" y="0"/>
	<anchor name="top" x="832" y="1500"/>
	<anchor name="topright" x="1590" y="1500"/>
</glyph>
<glyph name="V" format="2">
	<unicode hex="0056"/>
	<advance width="1457"/>
	<outline>
		<contour>
			<point x="-42.0004882812" y="1385.0048828125" type="line"/>
			<point x="-42.0004882812" y="1500" type="line"/>
			<point x="498.6697998047" y="1500" type="line"/>
			<point x="498.6697998047" y="1385.0048828125" type="line"/>
			<point x="323.6661376953" y="1358.0048828125" type="line"/>
			<point x="561.1838378906" y="701.3147583008" type="line"/>
			<point x="654.3001098633" y="401.0494995117" type="line"/>
			<point x="725.2019042969" y="197.1467895508" type="line"/>
			<point x="737.2019042969" y="197.1467895508" type="line"/>
			<point x="809.3827514648" y="399.8822631836" type="line"/>
			<point x="951.5062255859" y="822.8961791992" type="line"/>
			<point x="1143.9544067383" y="1351.0048828125" type="line"/>
			<point x="956.9507446289" y="1385.0048828125" type="line"/>
			<point x="954.9507446289" y="1500" type="line"/>
			<point x="1488.4989624023" y="1500" type="line"/>
			<point x="1488.4989624023" y="1385.0048828125" type="line"/>
			<point x="1310.4955444336" y="1356.0048828125" type="line"/>
			<point x="1079.7985839844" y="757.0536499023" type="line"/>
			<point x="810.1938476562" y="14.9267578125" type="line"/>
			<point x="646.0513305664" y="14.9267578125" type="line"/>
			<point x="404.6971435547" y="682.2728271484" type="line"/>
			<point x="138.0029296875" y="1356.0048828125" type="line"/>
		</contour>
	</outline>
	<anchor name="bottom" x="723" y="0"/>
	<anchor name="top" x="733" y="1500"/>
</glyph>
<glyph name="W" format="2">
	<unicode hex="0057"/>
	<advance width="2005"/>
	<outline>
		<contour>
			<point x="595.3579711914" y="14.9267578125" type="line"/>
			<point x="388.013671875" y="656.5310668945" type="line"/>
			<point x="129.0029296875" y="1358.0048828125" type="line"/>
			<point x="-45.9995117188" y="1387.0048828125" type="line"/>
			<point x="-45.9995117188" y="1500" type="line"/>
			<point x="480.9503173828" y="1500" type="line"/>
			<point x="480.9503173828" y="1387.0048828125" type="line"/>
			<point x="303.9478759766" y="1360.0048828125" type="line"/>
			<point x="500.0757446289" y="764.3692626953" type="line"/>
			<point x="614.2409667969" y="434.8461303711" type="line"/>
			<point x="664.9309082031" y="266.9470214844" type="line"/>
			<point x="676.9309082031" y="266.9470214844" type="line"/>
			<point x="730.4110107422" y="432.9151611328" type="line"/>
			<point x="828.4975585938" y="715.2578735352" type="line"/>
			<point x="954.5552978516" y="1091.5872802734" type="line"/>
			<point x="861.7887573242" y="1353.0048828125" type="line"/>
			<point x="692.786315918" y="1382.0048828125" type="line"/>
			<point x="692.786315918" y="1500" type="line"/>
			<point x="1233.2724609375" y="1500" type="line"/>
			<point x="1233.2724609375" y="1382.0048828125" type="line"/>
			<point x="1059.2700195312" y="1356.0048828125" type="line"/>
			<point x="1218.1212158203" y="846.8391113281" type="line"/>
			<point x="1355.85546875" y="435.0297241211" type="line"/>
			<point x="1403.4863891602" y="272.7833862305" type="line"/>
			<point x="1415.4863891602" y="272.7833862305" type="line"/>
			<point x="1463.7471923828" y="433.2788696289" type="line"/>
			<point x="1629" y="803" type="line"/>
			<point x="1788.5345458984" y="1353.0048828125" type="line"/>
			<point x="1588.5321044922" y="1387.0048828125" type="line"/>
			<point x="1588.5321044922" y="1500" type="line"/>
			<point x="2113.9273071289" y="1500" type="line"/>
			<point x="2113.9273071289" y="1387.0048828125" type="line"/>
			<point x="1949.9248657227" y="1358.0048828125" type="line"/>
			<point x="1747" y="760" type="line"/>
			<point x="1456.9163818359" y="14.9267578125" type="line"/>
			<point x="1311.3073730469" y="14.9267578125" type="line"/>
			<point x="1072.4534912109" y="754.8969726562" type="line"/>
			<point x="1009.6352539062" y="942.9960327148" type="line"/>
			<point x="997.6352539062" y="942.9960327148" type="line"/>
			<point x="931.8125" y="734.0996704102" type="line"/>
			<point x="701.1752319336" y="14.9267578125" type="line"/>
		</contour>
	</outline>
	<anchor name="bottom" x="1051" y="0"/>
	<anchor name="top" x="1051" y="1500"/>
</glyph>
<glyph name="X" format="2">
	<unicode hex="0058"/>
	<advance width="1469"/>
	<outline>
		<contour>
			<point x="-22.6672363281" y="0" type="line"/>
			<point x="-22.6672363281" y="99.9951171875" type="line"/>
			<point x="183.3366699219" y="133.9951171875" type="line"/>
			<point x="575" y="786" type="line"/>
			<point x="274.8612060547" y="1353.0048828125" type="line"/>
			<point x="64.8575439453" y="1387.0048828125" type="line"/>
			<point x="64.8575439453" y="1500" type="line"/>
			<point x="638.9566650391" y="1500" type="line"/>
			<point x="638.9566650391" y="1387.0048828125" type="line"/>
			<point x="497.9515380859" y="1353.0048828125" type="line"/>
			<point x="636.6963500977" y="1097.4869995117" type="line"/>
			<point x="729.9633178711" y="957.0494995117" type="line"/>
			<point x="741.9633178711" y="957.0494995117" type="line"/>
			<point x="751" y="1043" type="line"/>
			<point x="935.8410644531" y="1353.0048828125" type="line"/>
			<point x="787.8361816406" y="1387.0048828125" type="line"/>
			<point x="787.8361816406" y="1500" type="line"/>
			<point x="1367.5669555664" y="1500" type="line"/>
			<point x="1367.5669555664" y="1387.0048828125" type="line"/>
			<point x="1153.5630493164" y="1353.0048828125" type="line"/>
			<point x="859.3765869141" y="827.8986206055" type="line"/>
			<point x="1293.7769775391" y="133.9951171875" type="line"/>
			<point x="1483.7806396484" y="99.9951171875" type="line"/>
			<point x="1483.7806396484" y="0" type="line"/>
			<point x="878.0269775391" y="0" type="line"/>
			<point x="878.0269775391" y="99.9951171875" type="line"/>
			<point x="1054.0321044922" y="133.9951171875" type="line"/>
			<point x="798.2509155273" y="564.3765869141" type="line"/>
			<point x="718.9512329102" y="695.9450073242" type="line"/>
			<point x="706.9512329102" y="695.9450073242" type="line"/>
			<point x="577" y="562" type="line"/>
			<point x="427.0586547852" y="138.9951171875" type="line"/>
			<point x="639.0635375977" y="99.9951171875" type="line"/>
			<point x="639.0635375977" y="0" type="line"/>
		</contour>
	</outline>
	<anchor name="bottom" x="661" y="0"/>
	<anchor name="top" x="673" y="1500"/>
	<anchor name="cy_descender" x="1386" y="100"/>
	<anchor name="center" x="663" y="811"/>
</glyph>
<glyph name="Y" format="2">
	<unicode hex="0059"/>
	<advance width="1346"/>
	<outline>
		<contour>
			<point x="382.9487915039" y="0" type="line"/>
			<point x="382.9487915039" y="99.9951171875" type="line"/>
			<point x="581.9512329102" y="133.9951171875" type="line"/>
			<point x="584.9512329102" y="563.8941650391" type="line"/>
			<point x="465.984375" y="814.5409545898" type="line"/>
			<point x="113.0029296875" y="1353.0048828125" type="line"/>
			<point x="-67.9995117188" y="1387.0048828125" type="line"/>
			<point x="-67.9995117188" y="1500" type="line"/>
			<point x="493.9295654297" y="1500" type="line"/>
			<point x="493.9295654297" y="1387.0048828125" type="line"/>
			<point x="305.9271240234" y="1359.0048828125" type="line"/>
			<point x="630.2782592773" y="813.4392089844" type="line"/>
			<point x="659" y="783" type="line"/>
			<point x="669" y="783" type="line"/>
			<point x="865.1889038086" y="1026.137878418" type="line"/>
			<point x="1041.2064819336" y="1353.0048828125" type="line"/>
			<point x="870.2040405273" y="1387.0048828125" type="line"/>
			<point x="870.2040405273" y="1500" type="line"/>
			<point x="1392.4822998047" y="1500" type="line"/>
			<point x="1392.4822998047" y="1387.0048828125" type="line"/>
			<point x="1196.4798583984" y="1353.0048828125" type="line"/>
			<point x="953.377746582" y="941.4408569336" type="line"/>
			<point x="753.9781494141" y="566.3836669922" type="line"/>
			<point x="757.2598266602" y="133.9951171875" type="line"/>
			<point x="949.2622680664" y="99.9951171875" type="line"/>
			<point x="949.2622680664" y="0" type="line"/>
		</contour>
	</outline>
	<anchor name="bottom" x="636" y="0"/>
	<anchor name="top" x="640" y="1500"/>
	<anchor name="tonos" x="-100" y="1500"/>
	<anchor name="center" x="636" y="582"/>
</glyph>
<glyph name="Z" format="2">
	<unicode hex="005A"/>
	<advance width="1255"/>
	<outline>
		<contour>
			<point x="79.4992675781" y="0" type="line"/>
			<point x="49.3014526367" y="86.4102172852" type="line"/>
			<point x="868.3902587891" y="1364.3062744141" type="line"/>
			<point x="865.3902587891" y="1377.3062744141" type="line"/>
			<point x="373.8327636719" y="1377.3062744141" type="line"/>
			<point x="291.6323242188" y="1040.5023193359" type="line"/>
			<point x="136.8325195312" y="1040.5023193359" type="line"/>
			<point x="136.8325195312" y="1500" type="line"/>
			<point x="1099.7760620117" y="1500" type="line"/>
			<point x="1099.7760620117" y="1405.2926025391" type="line"/>
			<point x="290.9708862305" y="148.975402832" type="line"/>
			<point x="295.9708862305" y="129.975402832" type="line"/>
			<point x="916.1461181641" y="129.975402832" type="line"/>
			<point x="1015.3470458984" y="475.9786987305" type="line"/>
			<point x="1181.9467163086" y="475.9786987305" type="line"/>
			<point x="1130.1463623047" y="0" type="line"/>
		</contour>
	</outline>
	<anchor name="bottom" x="583" y="0"/>
	<anchor name="top" x="583" y="1500"/>
	<anchor name="_liga" x="0" y="0"/>
</glyph>
<glyph name="a" format="2">
	<unicode hex="0061"/>
	<advance width="1095"/>
	<outline>
		<contour>
			<point x="-33.8583984375" y="232.5141601562" type="qcurve" smooth="yes"/>
			<point x="-33.8583984375" y="379.7805175781"/>
			<point x="416" y="583"/>
			<point x="780" y="630" type="qcurve"/>
			<point x="888.3923950195" y="546.5617675781" type="line"/>
			<point x="450.1024780273" y="507.3817749023"/>
			<point x="274.1756591797" y="383.9798583984"/>
			<point x="274.1756591797" y="284.0815429688" type="qcurve" smooth="yes"/>
			<point x="274.1756591797" y="189.4720458984"/>
			<point x="315.3959960938" y="104.9996337891"/>
			<point x="424.0223388672" y="106.9996337891" type="qcurve" smooth="yes"/>
			<point x="466.6594238281" y="107.9996337891"/>
			<point x="663.3283081055" y="202.2536621094"/>
			<point x="699.4836425781" y="234.1766357422" type="qcurve"/>
			<point x="702.4836425781" y="542.0247802734" type="line" smooth="yes"/>
			<point x="703.4836425781" y="754.3472900391"/>
			<point x="611.9514770508" y="918.6022949219"/>
			<point x="441.1804199219" y="918.6022949219" type="qcurve" smooth="yes"/>
			<point x="336.8682861328" y="918.6022949219"/>
			<point x="282.9670410156" y="850.5670166016"/>
			<point x="297.5494384766" y="848.8492431641" type="qcurve"/>
			<point x="340.4275512695" y="801.2603759766"/>
			<point x="378.9637451172" y="750.1224975586"/>
			<point x="381.0138549805" y="714.5646362305" type="qcurve" smooth="yes"/>
			<point x="387.5603637695" y="670.3190917969"/>
			<point x="308.1130981445" y="611.72265625"/>
			<point x="223.5693359375" y="611.72265625" type="qcurve" smooth="yes"/>
			<point x="156.8992919922" y="611.72265625"/>
			<point x="81.6318359375" y="678.9296264648"/>
			<point x="80.6318359375" y="750.5260620117" type="qcurve" smooth="yes"/>
			<point x="78.6318359375" y="879.8655395508"/>
			<point x="284.4395141602" y="1035.7221679688"/>
			<point x="425.8207397461" y="1035.7221679688" type="qcurve" smooth="yes"/>
			<point x="646.2370605469" y="1035.7221679688"/>
			<point x="848.1771850586" y="853.2692871094"/>
			<point x="851.1771850586" y="680.2470092773" type="qcurve" smooth="yes"/>
			<point x="856.1771850586" y="116" type="line"/>
			<point x="1017.1771850586" y="81" type="line"/>
			<point x="1017.1771850586" y="0" type="line"/>
			<point x="821.3923950195" y="0" type="line"/>
			<point x="761.3923950195" y="50" type="line"/>
			<point x="719.3923950195" y="120.0610351562" type="line"/>
			<point x="666.2854003906" y="74.9055786133"/>
			<point x="367.7725830078" y="-14.5366210938"/>
			<point x="205.4302368164" y="-14.5366210938" type="qcurve" smooth="yes"/>
			<point x="144.2382202148" y="-14.5366210938"/>
			<point x="-33.8583984375" y="109.9423828125"/>
		</contour>
	</outline>
	<anchor name="bottom" x="548" y="0"/>
	<anchor name="ogonek" x="878" y="0"/>
	<anchor name="top" x="514" y="1000"/>
</glyph>
<glyph name="b" format="2">
	<unicode hex="0062"/>
	<advance width="1131"/>
	<outline>
		<contour>
			<point x="126.5440673828" y="0" type="line"/>
			<point x="128.5440673828" y="429.0048828125" type="line"/>
			<point x="126.4528198242" y="1375" type="line"/>
			<point x="-60.5471801758" y="1405" type="line"/>
			<point x="-60.5471801758" y="1500" type="line"/>
			<point x="128.8095703125" y="1529.0244140625" type="line"/>
			<point x="221.8095703125" y="1529.0244140625" type="line"/>
			<point x="281.8095703125" y="1480.0244140625" type="line"/>
			<point x="277.8095703125" y="786.9681396484" type="line"/>
			<point x="290.9594116211" y="872.125"/>
			<point x="508.2680053711" y="1015.3608398438"/>
			<point x="641.4467773438" y="1015.3608398438" type="qcurve" smooth="yes"/>
			<point x="871.914855957" y="1015.3608398438"/>
			<point x="1063.5038452148" y="769.818359375"/>
			<point x="1063.5038452148" y="526.8068847656" type="qcurve" smooth="yes"/>
			<point x="1063.5038452148" y="286.4055175781"/>
			<point x="805.6789550781" y="-22.2780761719"/>
			<point x="585.9608764648" y="-22.2780761719" type="qcurve" smooth="yes"/>
			<point x="450.4697875977" y="-22.2780761719"/>
			<point x="234.9613647461" y="87.4877929688"/>
			<point x="192.5499267578" y="141.7353515625" type="qcurve"/>
			<point x="113.5499267578" y="0" type="line"/>
		</contour>
		<contour>
			<point x="289.8095703125" y="284.9233398438" type="line"/>
			<point x="296.8095703125" y="230.3503417969" type="line"/>
			<point x="308.0165405273" y="179.1472167969"/>
			<point x="493.5595703125" y="91.4632568359"/>
			<point x="620.8095703125" y="91.4632568359" type="qcurve" smooth="yes"/>
			<point x="751.5661621094" y="91.4632568359"/>
			<point x="923.0595703125" y="365.0770263672"/>
			<point x="923.0595703125" y="490.8908691406" type="qcurve" smooth="yes"/>
			<point x="923.0595703125" y="623.1596679688"/>
			<point x="739.6818847656" y="887.8664550781"/>
			<point x="598.9252929688" y="887.8664550781" type="qcurve" smooth="yes"/>
			<point x="473.1752929688" y="887.8664550781"/>
			<point x="310.747253418" y="770.1915283203"/>
			<point x="289.8095703125" y="717.4533691406" type="qcurve"/>
		</contour>
	</outline>
	<anchor name="bottom" x="571" y="0"/>
	<anchor name="top" x="571" y="1533"/>
</glyph>
<glyph name="c" format="2">
	<unicode hex="0063"/>
	<advance width="1144"/>
	<outline>
		<contour>
			<point x="63.9259643555" y="498.2379150391" type="qcurve" smooth="yes"/>
			<point x="63.9259643555" y="742.8607177734"/>
			<point x="370.1943969727" y="1029.5751953125"/>
			<point x="636.2990722656" y="1029.5751953125" type="qcurve" smooth="yes"/>
			<point x="820.0090942383" y="1029.5751953125"/>
			<point x="875.4227294922" y="954.3117675781"/>
			<point x="932.5034179688" y="901.0532226562" type="qcurve"/>
			<point x="973.0034179688" y="994.3474121094" type="line"/>
			<point x="1062.7567138672" y="994.3474121094" type="line"/>
			<point x="1062.7567138672" y="620.3306884766" type="line"/>
			<point x="961.5034179688" y="618.3306884766" type="line"/>
			<point x="916.5034179688" y="731.9190673828" type="line" smooth="yes"/>
			<point x="884.5034179688" y="819.9190673828"/>
			<point x="680.5069580078" y="903.9682617188"/>
			<point x="577.3436279297" y="903.9682617188" type="qcurve" smooth="yes"/>
			<point x="418.5870361328" y="903.9682617188"/>
			<point x="247.9177246094" y="653.9512329102"/>
			<point x="247.9177246094" y="534.7292480469" type="qcurve" smooth="yes"/>
			<point x="247.9177246094" y="380.5586547852"/>
			<point x="379.1818847656" y="133.724609375"/>
			<point x="576.9384765625" y="133.724609375" type="qcurve" smooth="yes"/>
			<point x="726.4796142578" y="133.724609375"/>
			<point x="963.3380126953" y="238.7052001953"/>
			<point x="1034.9422607422" y="291.3758544922" type="qcurve"/>
			<point x="1091.1995849609" y="201" type="line"/>
			<point x="1016.4495849609" y="122"/>
			<point x="783.1729125977" y="-30.0244140625"/>
			<point x="585.9548339844" y="-30.0244140625" type="qcurve" smooth="yes"/>
			<point x="365.9404907227" y="-30.0244140625"/>
			<point x="63.9259643555" y="259.3079833984"/>
		</contour>
	</outline>
	<anchor name="bottom" x="563" y="0"/>
	<anchor name="top" x="534" y="1000"/>
</glyph>
<glyph name="d" format="2">
	<unicode hex="0064"/>
	<advance width="1216"/>
	<outline>
		<contour>
			<point x="67.2289428711" y="490.3637695312" type="qcurve" smooth="yes"/>
			<point x="67.2289428711" y="736.6978149414"/>
			<point x="322.6784667969" y="1026.3559570312"/>
			<point x="578.6799316406" y="1026.3559570312" type="qcurve" smooth="yes"/>
			<point x="664.2385253906" y="1026.3559570312"/>
			<point x="800.2399902344" y="962.0590820312"/>
			<point x="837.1635742188" y="924.0888671875" type="qcurve"/>
			<point x="841.1732177734" y="1385" type="line"/>
			<point x="701.1732177734" y="1416" type="line"/>
			<point x="701.1732177734" y="1500" type="line"/>
			<point x="892.5440673828" y="1529.0244140625" type="line"/>
			<point x="972.5440673828" y="1529.0244140625" type="line"/>
			<point x="1003.6983642578" y="1480.0244140625" type="line"/>
			<point x="996.6983642578" y="473.4604492188" type="line"/>
			<point x="1001.6983642578" y="116" type="line"/>
			<point x="1180.6983642578" y="81" type="line"/>
			<point x="1180.6983642578" y="0" type="line"/>
			<point x="923.9232177734" y="0" type="line"/>
			<point x="883.6732177734" y="50" type="line"/>
			<point x="856.1732177734" y="161.2768554688" type="line"/>
			<point x="815.3987426758" y="111.7863769531"/>
			<point x="658.6806640625" y="-28.2780761719"/>
			<point x="574.1124267578" y="-28.2780761719" type="qcurve" smooth="yes"/>
			<point x="332.0679321289" y="-28.2780761719"/>
			<point x="67.2289428711" y="250.3701782227"/>
		</contour>
		<contour>
			<point x="240.4803466797" y="502.7713623047" type="qcurve" smooth="yes"/>
			<point x="240.4803466797" y="358.8255615234"/>
			<point x="436.774230957" y="97.7210693359"/>
			<point x="547.3794555664" y="97.7210693359" type="qcurve" smooth="yes"/>
			<point x="617.1680297852" y="97.7210693359"/>
			<point x="817.1390991211" y="192.3592529297"/>
			<point x="865.9803466797" y="249.2453613281" type="qcurve"/>
			<point x="867.9803466797" y="486.6411132812" type="line"/>
			<point x="864.9803466797" y="799.2677001953" type="line"/>
			<point x="832.1198120117" y="848.7434082031"/>
			<point x="659.0285644531" y="945.0805664062"/>
			<point x="537.5285644531" y="945.0805664062" type="qcurve" smooth="yes"/>
			<point x="408.6206054688" y="945.0805664062"/>
			<point x="240.4803466797" y="655.0120849609"/>
		</contour>
	</outline>
	<anchor name="bottom" x="604" y="0"/>
	<anchor name="center" x="876" y="1202"/>
	<anchor name="top" x="604" y="1534"/>
	<anchor name="topright" x="961" y="1000"/>
	<anchor name="liga" x="1207" y="0"/>
</glyph>
<glyph name="e" format="2">
	<unicode hex="0065"/>
	<advance width="1169"/>
	<outline>
		<contour>
			<point x="63.1685180664" y="499.1622314453" type="qcurve" smooth="yes"/>
			<point x="63.1685180664" y="727.7161254883"/>
			<point x="342.6946411133" y="1030.7360839844"/>
			<point x="612.5896606445" y="1028.7360839844" type="qcurve" smooth="yes"/>
			<point x="875.6214599609" y="1026.7360839844"/>
			<point x="1120.154296875" y="760.5202636719"/>
			<point x="1133.3323364258" y="533.8815917969" type="qcurve"/>
			<point x="1136.2025146484" y="507.9404296875" type="line"/>
			<point x="166" y="528" type="line"/>
			<point x="166" y="624" type="line"/>
			<point x="877.3086547852" y="599.4809570312" type="line"/>
			<point x="869.3086547852" y="750.9318847656"/>
			<point x="689.4165039062" y="912.7227783203"/>
			<point x="553.265625" y="912.7227783203" type="qcurve" smooth="yes"/>
			<point x="411.6604003906" y="912.7227783203"/>
			<point x="228.3427734375" y="686.9935302734"/>
			<point x="228.3427734375" y="531.4604492188" type="qcurve" smooth="yes"/>
			<point x="228.3427734375" y="355.4277954102"/>
			<point x="381.9986572266" y="133.5895996094"/>
			<point x="581.6038818359" y="133.5895996094" type="qcurve" smooth="yes"/>
			<point x="716.7211303711" y="133.5895996094"/>
			<point x="971.3968505859" y="220.7060546875"/>
			<point x="1038.1501464844" y="286.1553955078" type="qcurve"/>
			<point x="1083.3145141602" y="202.8127441406" type="line"/>
			<point x="1032.6994018555" y="106.0198974609"/>
			<point x="743.6995849609" y="-30.5219726562"/>
			<point x="613.2552490234" y="-30.5219726562" type="qcurve" smooth="yes"/>
			<point x="360.5942993164" y="-30.5219726562"/>
			<point x="63.1685180664" y="266.1314086914"/>
		</contour>
	</outline>
	<anchor name="bottom" x="578" y="0"/>
	<anchor name="ogonek" x="744" y="0"/>
	<anchor name="top" x="539" y="1000"/>
</glyph>
<glyph name="g" format="2">
	<unicode hex="0067"/>
	<advance width="1222"/>
	<outline>
		<contour>
			<point x="64.7151489258" y="-254.2753295898" type="qcurve" smooth="yes"/>
			<point x="64.7151489258" y="-177.4866333008"/>
			<point x="258.6731567383" y="-39.9780273438"/>
			<point x="407.1978149414" y="36.0043334961" type="qcurve"/>
			<point x="485.0601196289" y="-18.5239257812" type="line"/>
			<point x="377.4712524414" y="-76.3582763672"/>
			<point x="293.1602172852" y="-193.9190673828"/>
			<point x="293.1602172852" y="-236.671875" type="qcurve" smooth="yes"/>
			<point x="293.1602172852" y="-298.8999633789"/>
			<point x="353.6809692383" y="-386.0576171875"/>
			<point x="635.7625732422" y="-386.0576171875" type="qcurve" smooth="yes"/>
			<point x="850.0852661133" y="-386.0576171875"/>
			<point x="984.6817016602" y="-298.4698486328"/>
			<point x="985.6817016602" y="-242.7655029297" type="qcurve" smooth="yes"/>
			<point x="984.6817016602" y="-201.8004150391"/>
			<point x="910.6905517578" y="-155.4067993164"/>
			<point x="631.8248291016" y="-129.2462158203" type="qcurve" smooth="yes"/>
			<point x="362.1445922852" y="-98.6961669922"/>
			<point x="94.3501586914" y="-88.3145141602"/>
			<point x="94.3501586914" y="49.1547241211" type="qcurve" smooth="yes"/>
			<point x="94.3501586914" y="158.9815063477"/>
			<point x="316.8588867188" y="279.3594360352"/>
			<point x="476.4265136719" y="293.6367797852" type="qcurve"/>
			<point x="448.3590087891" y="313.3672485352" type="line"/>
			<point x="380.9071655273" y="255.3046264648"/>
			<point x="367.3709106445" y="195.7701416016"/>
			<point x="367.3709106445" y="143.4587402344" type="qcurve" smooth="yes"/>
			<point x="367.3709106445" y="106.1544799805"/>
			<point x="442.8471679688" y="57.1762084961"/>
			<point x="685.6861572266" y="50.7463378906" type="qcurve" smooth="yes"/>
			<point x="927.9257202148" y="40.7261352539"/>
			<point x="1188.6000366211" y="-45.7513427734"/>
			<point x="1187.7298583984" y="-183.3341674805" type="qcurve" smooth="yes"/>
			<point x="1186.8596801758" y="-319.0345458984"/>
			<point x="898.1319580078" y="-489.5317382812"/>
			<point x="546.1431274414" y="-489.5317382812" type="qcurve" smooth="yes"/>
			<point x="306.9577026367" y="-489.5317382812"/>
			<point x="64.7151489258" y="-374.6396484375"/>
		</contour>
		<contour>
			<point x="129.9992675781" y="612.2855224609" type="qcurve" smooth="yes"/>
			<point x="129.9992675781" y="823.7928466797"/>
			<point x="462.3427124023" y="1016.1071777344"/>
			<point x="647.9413452148" y="1016.1071777344" type="qcurve" smooth="yes"/>
			<point x="851.4242553711" y="1016.1071777344"/>
			<point x="1116.77734375" y="832.7928466797"/>
			<point x="1117.77734375" y="617.2855224609" type="qcurve" smooth="yes"/>
			<point x="1118.77734375" y="417.9866943359"/>
			<point x="838.9870605469" y="193.4709472656"/>
			<point x="657.7922363281" y="193.4709472656" type="qcurve" smooth="yes"/>
			<point x="460.2611083984" y="193.4709472656"/>
			<point x="129.9992675781" y="396.7781982422"/>
		</contour>
		<contour>
			<point x="397.8931274414" y="598.322265625" type="qcurve" smooth="yes"/>
			<point x="397.8931274414" y="456.6421508789"/>
			<point x="515.5376586914" y="275.2093505859"/>
			<point x="634.1431274414" y="275.2093505859" type="qcurve" smooth="yes"/>
			<point x="728.7485961914" y="275.2093505859"/>
			<point x="868.1431274414" y="464.8909301758"/>
			<point x="868.1431274414" y="604.5710449219" type="qcurve" smooth="yes"/>
			<point x="868.1431274414" y="734.251159668"/>
			<point x="741.7485961914" y="911.0500488281"/>
			<point x="635.1431274414" y="911.0500488281" type="qcurve" smooth="yes"/>
			<point x="523.5376586914" y="911.0500488281"/>
			<point x="397.8931274414" y="730.0023803711"/>
		</contour>
		<contour>
			<point x="780.3167114258" y="939.638671875" type="line"/>
			<point x="786.682434082" y="973.82421875" type="line"/>
			<point x="1248.2150268555" y="990.82421875" type="line"/>
			<point x="1248.2150268555" y="844.4045410156" type="line"/>
		</contour>
	</outline>
	<anchor name="bottom" x="524" y="-416"/>
	<anchor name="top" x="484" y="1000"/>
</glyph>
<glyph name="h" format="2">
	<unicode hex="0068"/>
	<advance width="1251"/>
	<outline>
		<contour>
			<point x="74.3413085938" y="0" type="line"/>
			<point x="74.3413085938" y="81" type="line"/>
			<point x="213.3413085938" y="116" type="line"/>
			<point x="215.3413085938" y="581.0966796875" type="line"/>
			<point x="213.3413085938" y="1379" type="line"/>
			<point x="86.3413085938" y="1409" type="line"/>
			<point x="86.3413085938" y="1500" type="line"/>
			<point x="241.3471679688" y="1529.0244140625" type="line"/>
			<point x="323.3471679688" y="1529.0244140625" type="line"/>
			<point x="382.3471679688" y="1480.0244140625" type="line"/>
			<point x="382.3471679688" y="864.290222168" type="line"/>
			<point x="431.1262817383" y="918.8784179688"/>
			<point x="613.6497192383" y="1016.5366210938"/>
			<point x="721.0680541992" y="1016.5366210938" type="qcurve" smooth="yes"/>
			<point x="874.6083984375" y="1016.5366210938"/>
			<point x="1050.6171875" y="865.0224609375"/>
			<point x="1050.6171875" y="717.8137817383" type="qcurve" smooth="yes"/>
			<point x="1050.6171875" y="648.787902832"/>
			<point x="1047.7066650391" y="654.91796875"/>
			<point x="1047.7066650391" y="580.0966796875" type="qcurve" smooth="yes"/>
			<point x="1047.9829711914" y="116" type="line"/>
			<point x="1238.9829711914" y="81" type="line"/>
			<point x="1238.9829711914" y="0" type="line"/>
			<point x="705.9771118164" y="0" type="line"/>
			<point x="705.9771118164" y="81" type="line"/>
			<point x="869.9771118164" y="116" type="line"/>
			<point x="877.1560668945" y="600.8391113281" type="line"/>
			<point x="877.1560668945" y="704.8284301758" type="line" smooth="yes"/>
			<point x="877.1560668945" y="782.7630004883"/>
			<point x="772.487487793" y="890.9520263672"/>
			<point x="713.3056640625" y="890.9520263672" type="qcurve" smooth="yes"/>
			<point x="598.294921875" y="890.9520263672"/>
			<point x="429.3334350586" y="813.9030151367"/>
			<point x="384.0983886719" y="739.401184082" type="qcurve"/>
			<point x="381.3471679688" y="607.5561523438" type="line"/>
			<point x="384.3471679688" y="116" type="line"/>
			<point x="556.8471679688" y="81" type="line"/>
			<point x="556.8471679688" y="0" type="line"/>
		</contour>
	</outline>
	<anchor name="bottom" x="629" y="0"/>
	<anchor name="center" x="347" y="1202"/>
	<anchor name="top" x="304" y="1534"/>
</glyph>
<glyph name="k" format="2">
	<unicode hex="006B"/>
	<advance width="945"/>
	<outline>
		<contour>
			<point x="73.4556884766" y="0" type="line"/>
			<point x="73.4556884766" y="81" type="line"/>
			<point x="217.4556884766" y="116" type="line"/>
			<point x="219.4556884766" y="577" type="line"/>
			<point x="217.4556884766" y="1379" type="line"/>
			<point x="75.4556884766" y="1409" type="line"/>
			<point x="75.4556884766" y="1500" type="line"/>
			<point x="239.2404785156" y="1529.0244140625" type="line"/>
			<point x="322.2404785156" y="1529.0244140625" type="line"/>
			<point x="381.2404785156" y="1480.0244140625" type="line"/>
			<point x="386.2404785156" y="597" type="line"/>
			<point x="383.2404785156" y="116" type="line"/>
			<point x="540.2404785156" y="81" type="line"/>
			<point x="540.2404785156" y="0" type="line"/>
		</contour>
		<contour>
			<point x="303" y="376" type="line"/>
			<point x="303" y="490" type="line"/>
			<point x="675.7259521484" y="873.82421875" type="line"/>
			<point x="610.7259521484" y="903.82421875" type="line"/>
			<point x="610.7259521484" y="1000.82421875" type="line"/>
			<point x="1030.1166381836" y="1000.82421875" type="line"/>
			<point x="1030.1166381836" y="903.82421875" type="line"/>
			<point x="816.1166381836" y="868.82421875" type="line"/>
		</contour>
		<contour>
			<point x="416.8084106445" y="582.2924804688" type="line"/>
			<point x="534.4470825195" y="669.8179931641" type="line"/>
			<point x="901.6604614258" y="113" type="line"/>
			<point x="1055.6604614258" y="81" type="line"/>
			<point x="1055.6604614258" y="0" type="line"/>
			<point x="864.2405395508" y="0" type="line"/>
			<point x="825.7516479492" y="-41.4222412109" type="line"/>
			<point x="744.196105957" y="49.0888671875" type="line"/>
		</contour>
	</outline>
	<anchor name="bottom" x="608" y="0"/>
	<anchor name="top" x="578" y="1534"/>
</glyph>
<glyph name="l" format="2">
	<unicode hex="006C"/>
	<advance width="594"/>
	<outline>
		<contour>
			<point x="73.9985351562" y="0" type="line"/>
			<point x="73.9985351562" y="81" type="line"/>
			<point x="215.9985351562" y="116" type="line"/>
			<point x="217.9985351562" y="527" type="line"/>
			<point x="215.9985351562" y="1377" type="line"/>
			<point x="69.9985351562" y="1407" type="line"/>
			<point x="69.9985351562" y="1500" type="line"/>
			<point x="248.0043945312" y="1529.0244140625" type="line"/>
			<point x="325.0043945312" y="1527.0244140625" type="line"/>
			<point x="387.0043945312" y="1481.0244140625" type="line"/>
			<point x="385.0043945312" y="527" type="line"/>
			<point x="387.0043945312" y="116" type="line"/>
			<point x="544.0043945312" y="81" type="line"/>
			<point x="544.0043945312" y="0" type="line"/>
		</contour>
	</outline>
	<anchor name="bottom" x="316" y="0"/>
	<anchor name="center" x="316" y="750"/>
	<anchor name="top" x="316" y="1534"/>
	<anchor name="topright" x="367" y="1000"/>
	<anchor name="centerright" x="746" y="680"/>
	<anchor name="yu_dash" x="321" y="500"/>
	<anchor name="liga" x="632" y="0"/>
</glyph>
<glyph name="n" format="2">
	<unicode hex="006E"/>
	<advance width="1263"/>
	<outline>
		<contour>
			<point x="76" y="0" type="line"/>
			<point x="76" y="81" type="line"/>
			<point x="224" y="116" type="line"/>
			<point x="226" y="581" type="line"/>
			<point x="224" y="852" type="line"/>
			<point x="66" y="882" type="line"/>
			<point x="66" y="974" type="line"/>
			<point x="199" y="1009" type="line"/>
			<point x="324" y="960" type="line"/>
			<point x="357" y="781" type="line"/>
			<point x="414" y="872"/>
			<point x="646" y="1017"/>
			<point x="773" y="1017" type="qcurve" smooth="yes"/>
			<point x="926" y="1017"/>
			<point x="1060" y="812"/>
			<point x="1060" y="648" type="qcurve" smooth="yes"/>
			<point x="1060" y="635"/>
			<point x="1056" y="589"/>
			<point x="1056" y="573" type="qcurve" smooth="yes"/>
			<point x="1057" y="115" type="line"/>
			<point x="1227" y="81" type="line"/>
			<point x="1227" y="0" type="line"/>
			<point x="745" y="0" type="line"/>
			<point x="745" y="81" type="line"/>
			<point x="880" y="116" type="line"/>
			<point x="885" y="601" type="line"/>
			<point x="885" y="647" type="line" smooth="yes"/>
			<point x="885" y="771"/>
			<point x="797" y="877"/>
			<point x="722" y="877" type="qcurve" smooth="yes"/>
			<point x="596" y="877"/>
			<point x="419" y="763"/>
			<point x="394" y="718" type="qcurve"/>
			<point x="392" y="607" type="line"/>
			<point x="394" y="116" type="line"/>
			<point x="562" y="81" type="line"/>
			<point x="562" y="0" type="line"/>
		</contour>
	</outline>
	<anchor name="bottom" x="632" y="0"/>
	<anchor name="top" x="632" y="1000"/>
	<anchor name="liga" x="1264" y="0"/>
</glyph>
<glyph name="o" format="2">
	<unicode hex="006F"/>
	<advance width="1142"/>
	<outline>
		<contour>
			<point x="63.9259643555" y="500.412109375" type="qcurve" smooth="yes"/>
			<point x="63.9259643555" y="733.0334472656"/>
			<point x="355.362121582" y="1023.8693847656"/>
			<point x="564.6966552734" y="1023.8693847656" type="qcurve" smooth="yes"/>
			<point x="780.0215454102" y="1023.8693847656"/>
			<point x="1077.6884155273" y="752.2624511719"/>
			<point x="1077.6884155273" y="506.412109375" type="qcurve" smooth="yes"/>
			<point x="1077.6884155273" y="273.0493164062"/>
			<point x="788.1513671875" y="-26.0366210938"/>
			<point x="574.6966552734" y="-26.0366210938" type="qcurve" smooth="yes"/>
			<point x="360.6217651367" y="-26.0366210938"/>
			<point x="63.9259643555" y="251.8203125"/>
		</contour>
		<contour>
			<point x="228.6966552734" y="512.412109375" type="qcurve" smooth="yes"/>
			<point x="231.2570800781" y="338.6408691406"/>
			<point x="414.6900634766" y="61.3179931641"/>
			<point x="564.4466552734" y="61.3179931641" type="qcurve" smooth="yes"/>
			<point x="727.2032470703" y="61.3179931641"/>
			<point x="902.6966552734" y="315.082824707"/>
			<point x="902.6966552734" y="499.412109375" type="qcurve" smooth="yes"/>
			<point x="902.6966552734" y="669.8591918945"/>
			<point x="717.2032470703" y="907.8666992188"/>
			<point x="566.4466552734" y="907.8666992188" type="qcurve" smooth="yes"/>
			<point x="401.6900634766" y="907.8666992188"/>
			<point x="227.1362304688" y="692.5642700195"/>
		</contour>
	</outline>
	<anchor name="bottom" x="584" y="0"/>
	<anchor name="center" x="584" y="500"/>
	<anchor name="ogonek" x="747" y="0"/>
	<anchor name="top" x="584" y="1000"/>
	<anchor name="topright" x="751" y="1000"/>
	<anchor name="GRKtop" x="584" y="1000"/>
	<anchor name="yu_dash" x="150" y="500"/>
</glyph>
<glyph name="p" format="2">
	<unicode hex="0070"/>
	<advance width="1218"/>
	<outline>
		<contour>
			<point x="49.6982421875" y="-480" type="line"/>
			<point x="49.6982421875" y="-404" type="line"/>
			<point x="193.1982421875" y="-369" type="line"/>
			<point x="195.1982421875" y="387.0634765625" type="line"/>
			<point x="193.1982421875" y="850.82421875" type="line"/>
			<point x="43.6982421875" y="880.82421875" type="line"/>
			<point x="43.6982421875" y="970.82421875" type="line"/>
			<point x="216.5549926758" y="997.8486328125" type="line"/>
			<point x="296.5549926758" y="917.8486328125" type="line"/>
			<point x="325.5549926758" y="815.82421875" type="line"/>
			<point x="314.9266357422" y="883.9268798828"/>
			<point x="552.537902832" y="1016.1071777344"/>
			<point x="739.0571899414" y="1016.1071777344" type="qcurve" smooth="yes"/>
			<point x="983.4447631836" y="1016.1071777344"/>
			<point x="1149.6431884766" y="766.1429443359"/>
			<point x="1149.6431884766" y="532.5295410156" type="qcurve" smooth="yes"/>
			<point x="1149.6431884766" y="296.7526855469"/>
			<point x="902.552734375" y="-22.0244140625"/>
			<point x="669.787902832" y="-21.0244140625" type="qcurve" smooth="yes"/>
			<point x="502.787902832" y="-21.0244140625"/>
			<point x="330.2582397461" y="61.6654052734"/>
			<point x="359.5549926758" y="91" type="qcurve"/>
			<point x="361.5549926758" y="-369" type="line"/>
			<point x="519.0549926758" y="-404" type="line"/>
			<point x="519.0549926758" y="-480" type="line"/>
		</contour>
		<contour>
			<point x="358.5549926758" y="249.1929931641" type="line"/>
			<point x="362.6514282227" y="178.8051757812"/>
			<point x="552.0549926758" y="62.9893798828"/>
			<point x="688.5549926758" y="62.9893798828" type="qcurve" smooth="yes"/>
			<point x="820.3115844727" y="62.9893798828"/>
			<point x="990.0549926758" y="371.7498779297"/>
			<point x="990.0549926758" y="491.5295410156" type="qcurve" smooth="yes"/>
			<point x="990.0549926758" y="618.459777832"/>
			<point x="831.8115844727" y="946.6640625"/>
			<point x="696.0549926758" y="946.6640625" type="qcurve" smooth="yes"/>
			<point x="556.5549926758" y="946.6640625"/>
			<point x="382.9348144531" y="807.0140380859"/>
			<point x="359.5549926758" y="720.6781616211" type="qcurve"/>
			<point x="355.5549926758" y="401.3244628906" type="line"/>
		</contour>
	</outline>
	<anchor name="bottom" x="599" y="0"/>
	<anchor name="top" x="599" y="1000"/>
</glyph>
<glyph name="q" format="2">
	<unicode hex="0071"/>
	<advance width="1215"/>
	<outline>
		<contour>
			<point x="68.4408569336" y="490.861328125" type="qcurve" smooth="yes"/>
			<point x="68.4408569336" y="738.4758300781"/>
			<point x="348.9141235352" y="1026.7607421875"/>
			<point x="580.9593505859" y="1026.7607421875" type="qcurve" smooth="yes"/>
			<point x="697.9311523438" y="1026.7607421875"/>
			<point x="886.5179443359" y="960.1780395508"/>
			<point x="883.3027954102" y="960.7986450195" type="qcurve"/>
			<point x="971.3027954102" y="999.2583007812" type="line"/>
			<point x="1171.9577636719" y="970.2338867188" type="line"/>
			<point x="1171.9577636719" y="879.7338867188" type="line"/>
			<point x="1038.9577636719" y="858.7338867188" type="line"/>
			<point x="1032.9577636719" y="436.0864257812" type="line"/>
			<point x="1032.9577636719" y="-369" type="line"/>
			<point x="1176.9577636719" y="-404" type="line"/>
			<point x="1176.9577636719" y="-480" type="line"/>
			<point x="688.3027954102" y="-480" type="line"/>
			<point x="688.3027954102" y="-404" type="line"/>
			<point x="863.3027954102" y="-371" type="line"/>
			<point x="869.3027954102" y="118.0126953125" type="line"/>
			<point x="861.2493896484" y="72.8145751953"/>
			<point x="627.7152709961" y="-27.2780761719"/>
			<point x="510.5891723633" y="-27.2780761719" type="qcurve" smooth="yes"/>
			<point x="323.4141235352" y="-27.2780761719"/>
			<point x="68.4408569336" y="230.3522949219"/>
		</contour>
		<contour>
			<point x="241.3027954102" y="487.2512207031" type="qcurve" smooth="yes"/>
			<point x="241.3027954102" y="316.0113525391"/>
			<point x="397.0462036133" y="81.4956665039"/>
			<point x="537.8027954102" y="81.4956665039" type="qcurve" smooth="yes"/>
			<point x="673.3027954102" y="81.4956665039"/>
			<point x="833.0527954102" y="177.1592407227"/>
			<point x="865.3027954102" y="215.0952758789" type="qcurve"/>
			<point x="869.3027954102" y="827.0495605469" type="line"/>
			<point x="836.0527954102" y="888.3256225586"/>
			<point x="663.0527954102" y="950.5255737305"/>
			<point x="548.3027954102" y="950.5255737305" type="qcurve" smooth="yes"/>
			<point x="412.5462036133" y="950.5255737305"/>
			<point x="241.3027954102" y="660.4919433594"/>
		</contour>
	</outline>
	<anchor name="bottom" x="594" y="0"/>
	<anchor name="top" x="594" y="1000"/>
</glyph>
<glyph name="r" format="2">
	<unicode hex="0072"/>
	<advance width="962"/>
	<outline>
		<contour>
			<point x="78.9985351562" y="0" type="line"/>
			<point x="78.9985351562" y="81" type="line"/>
			<point x="222.9985351562" y="116" type="line"/>
			<point x="224.9985351562" y="505.6767578125" type="line"/>
			<point x="222.9985351562" y="851.4145507812" type="line"/>
			<point x="65.9985351562" y="881.4145507812" type="line"/>
			<point x="65.9985351562" y="973.4145507812" type="line"/>
			<point x="290.278137207" y="1008.4389648438" type="line"/>
			<point x="330.278137207" y="981.4389648438" type="line"/>
			<point x="368.1483154297" y="755.4145507812" type="line"/>
			<point x="434.8036499023" y="860.4145507812"/>
			<point x="719.6109619141" y="1017.2780761719"/>
			<point x="839.4689331055" y="1014.6877441406" type="qcurve" smooth="yes"/>
			<point x="935.7496948242" y="1014.6877441406" type="line"/>
			<point x="935.7496948242" y="667.6588134766" type="line"/>
			<point x="828.0374755859" y="667.6588134766" type="line"/>
			<point x="786.0374755859" y="803.0263671875" type="line"/>
			<point x="697.4710083008" y="803.0263671875"/>
			<point x="460.6539916992" y="732.4450683594"/>
			<point x="387.7833251953" y="688.6867675781" type="qcurve"/>
			<point x="384.7833251953" y="505.6767578125" type="line"/>
			<point x="386.7833251953" y="116" type="line"/>
			<point x="565.7833251953" y="81" type="line"/>
			<point x="565.7833251953" y="0" type="line"/>
		</contour>
	</outline>
	<anchor name="bottom" x="432" y="0"/>
	<anchor name="top" x="486" y="1000"/>
</glyph>
<glyph name="s" format="2">
	<unicode hex="0073"/>
	<advance width="976"/>
	<outline>
		<contour>
			<point x="102.9456787109" y="4.7058105469" type="line"/>
			<point x="102.9456787109" y="280.0186767578" type="line"/>
			<point x="232.9072875977" y="280.0186767578" type="line"/>
			<point x="253.9072875977" y="205.4302978516" type="line" smooth="yes"/>
			<point x="272.1572875977" y="132.6802978516"/>
			<point x="371.6755981445" y="78.9132080078"/>
			<point x="485.4868774414" y="78.9132080078" type="qcurve" smooth="yes"/>
			<point x="606.5251464844" y="78.9132080078"/>
			<point x="761.9638671875" y="181.44140625"/>
			<point x="761.9638671875" y="267.5521240234" type="qcurve" smooth="yes"/>
			<point x="761.9638671875" y="364.8784790039"/>
			<point x="626.3801879883" y="420.8369750977"/>
			<point x="461.9627075195" y="455.9732666016" type="qcurve" smooth="yes"/>
			<point x="260.6264648438" y="495.4979858398"/>
			<point x="126.4553222656" y="622.4169921875"/>
			<point x="126.4553222656" y="721.4700317383" type="qcurve" smooth="yes"/>
			<point x="126.4553222656" y="848.1812744141"/>
			<point x="337.990234375" y="1032.0974121094"/>
			<point x="527.5510864258" y="1032.0974121094" type="qcurve" smooth="yes"/>
			<point x="623.3096313477" y="1032.0974121094"/>
			<point x="712.2265014648" y="987.5645751953"/>
			<point x="751.2301025391" y="954.5645751953" type="qcurve"/>
			<point x="777.2301025391" y="996.1184082031" type="line"/>
			<point x="847.4833984375" y="996.1184082031" type="line"/>
			<point x="847.4833984375" y="765.9702148438" type="line"/>
			<point x="693.2301025391" y="765.9702148438" type="line"/>
			<point x="676.2301025391" y="806.6787719727" type="line" smooth="yes"/>
			<point x="659.7301025391" y="851.05859375"/>
			<point x="637.267578125" y="921.8317871094"/>
			<point x="530.8856811523" y="921.8317871094" type="qcurve" smooth="yes"/>
			<point x="388.9005126953" y="921.8317871094"/>
			<point x="272.0416259766" y="853.7685546875"/>
			<point x="272.0416259766" y="786.0685424805" type="qcurve" smooth="yes"/>
			<point x="272.0416259766" y="710.2036743164"/>
			<point x="396.4797363281" y="641.7133789062"/>
			<point x="580.3795776367" y="614.8330078125" type="qcurve" smooth="yes"/>
			<point x="743.0388793945" y="594.174621582"/>
			<point x="910.4833984375" y="457.9867553711"/>
			<point x="910.4833984375" y="310.7271118164" type="qcurve" smooth="yes"/>
			<point x="910.4833984375" y="176.3433227539"/>
			<point x="708.1516113281" y="-31.5170898438"/>
			<point x="501.3072509766" y="-31.5170898438" type="qcurve" smooth="yes"/>
			<point x="366.8128051758" y="-31.5170898438"/>
			<point x="242.8340454102" y="28.389465332"/>
			<point x="218.1989746094" y="65.2596435547" type="qcurve"/>
			<point x="154.9072875977" y="4.7058105469" type="line"/>
		</contour>
	</outline>
	<anchor name="bottom" x="468" y="0"/>
	<anchor name="top" x="416" y="1000"/>
</glyph>
<glyph name="t" format="2">
	<unicode hex="0074"/>
	<advance width="715"/>
	<outline>
		<contour>
			<point x="27.5424804688" y="853.1103515625" type="line"/>
			<point x="27.5424804688" y="912.2338867188" type="line"/>
			<point x="201.5424804688" y="942.2338867188"/>
			<point x="282.8589477539" y="1093.4755859375"/>
			<point x="324.8589477539" y="1274.4755859375" type="qcurve"/>
			<point x="350.0124511719" y="1274.4755859375" type="line"/>
			<point x="397.0124511719" y="1223.4755859375" type="line"/>
			<point x="392.0124511719" y="961.4755859375" type="line"/>
			<point x="692.9838256836" y="961.4755859375" type="line"/>
			<point x="692.9838256836" y="850.1103515625" type="line"/>
			<point x="386.0124511719" y="850.1103515625" type="line"/>
			<point x="380.0124511719" y="547.4833984375" type="line"/>
			<point x="390.0124511719" y="259.9256591797" type="line" smooth="yes"/>
			<point x="391.4520263672" y="190.9256591797"/>
			<point x="472.2808837891" y="121.9256591797"/>
			<point x="529.0861816406" y="129.9256591797" type="qcurve" smooth="yes"/>
			<point x="707.2365112305" y="139.9256591797" type="line"/>
			<point x="707.2365112305" y="41" type="line"/>
			<point x="384.7142944336" y="-9.7756347656" type="line"/>
			<point x="310.2381591797" y="-9.7756347656"/>
			<point x="199.8767700195" y="116.3541870117"/>
			<point x="201.8767700195" y="233.2243652344" type="qcurve" smooth="yes"/>
			<point x="215.8767700195" y="547.4833984375" type="line"/>
			<point x="215.8767700195" y="835.1103515625" type="line"/>
		</contour>
	</outline>
	<anchor name="bottom" x="322" y="0"/>
	<anchor name="center" x="312" y="622"/>
	<anchor name="top" x="322" y="1179"/>
	<anchor name="topright" x="540" y="1000"/>
</glyph>
<glyph name="u" format="2">
	<unicode hex="0075"/>
	<advance width="1235"/>
	<outline>
		<contour>
			<point x="41.6561279297" y="880.82421875" type="line"/>
			<point x="41.6561279297" y="970.82421875" type="line"/>
			<point x="176.0514526367" y="1002.82421875" type="line"/>
			<point x="309.0514526367" y="1002.82421875" type="line"/>
			<point x="362.0514526367" y="953.82421875" type="line"/>
			<point x="360.0514526367" y="519.1911621094" type="line"/>
			<point x="360.0514526367" y="286.3101806641" type="line" smooth="yes"/>
			<point x="360.0514526367" y="218.1618652344"/>
			<point x="494.6999511719" y="59.0505371094"/>
			<point x="562.6801147461" y="59.0505371094" type="qcurve" smooth="yes"/>
			<point x="601.8776855469" y="58.0505371094"/>
			<point x="781.3313598633" y="142.4083251953"/>
			<point x="850.4945678711" y="198.5517578125" type="qcurve"/>
			<point x="852.4945678711" y="462.966796875" type="line"/>
			<point x="848.4945678711" y="850.82421875" type="line"/>
			<point x="696.4945678711" y="880.82421875" type="line"/>
			<point x="696.4945678711" y="970.82421875" type="line"/>
			<point x="829.7600708008" y="1002.82421875" type="line"/>
			<point x="971.7600708008" y="1002.82421875" type="line"/>
			<point x="1024.7600708008" y="953.82421875" type="line"/>
			<point x="1021.7600708008" y="463.966796875" type="line"/>
			<point x="1024.7600708008" y="154.5" type="line"/>
			<point x="1177.7600708008" y="124.5" type="line"/>
			<point x="1177.7600708008" y="26" type="line"/>
			<point x="936.4945678711" y="-8" type="line"/>
			<point x="873.4945678711" y="39" type="line"/>
			<point x="846.0138549805" y="128" type="line"/>
			<point x="799.0656738281" y="65.9951171875"/>
			<point x="604.4946899414" y="-17.7756347656"/>
			<point x="512.1334228516" y="-17.7756347656" type="qcurve" smooth="yes"/>
			<point x="335.7754516602" y="-17.7756347656"/>
			<point x="193.6561279297" y="181.5611572266"/>
			<point x="193.6561279297" y="330.2243652344" type="qcurve" smooth="yes"/>
			<point x="193.6561279297" y="402.2243652344"/>
			<point x="198.6561279297" y="522.1911621094"/>
			<point x="197.6561279297" y="547.1911621094" type="qcurve" smooth="yes"/>
			<point x="192.6561279297" y="850.82421875" type="line"/>
		</contour>
	</outline>
	<anchor name="bottom" x="622" y="0"/>
	<anchor name="ogonek" x="1030" y="20"/>
	<anchor name="top" x="622" y="1000"/>
	<anchor name="topright" x="1005" y="1000"/>
	<anchor name="cy_descender" x="1178" y="80"/>
</glyph>
<glyph name="v" format="2">
	<unicode hex="0076"/>
	<advance width="976"/>
	<outline>
		<contour>
			<point x="-37.428894043" y="909.82421875" type="line"/>
			<point x="-37.428894043" y="1000.82421875" type="line"/>
			<point x="441.346496582" y="1000.82421875" type="line"/>
			<point x="441.346496582" y="919.82421875" type="line"/>
			<point x="270.346496582" y="883.82421875" type="line"/>
			<point x="432.0556640625" y="405.9494018555" type="line"/>
			<point x="486" y="301" type="line"/>
			<point x="523" y="187" type="line"/>
			<point x="533" y="187" type="line"/>
			<point x="570" y="301" type="line"/>
			<point x="601.8756713867" y="506.0241088867" type="line"/>
			<point x="726.0422973633" y="884.82421875" type="line"/>
			<point x="596.0422973633" y="919.82421875" type="line"/>
			<point x="596.0422973633" y="1000.82421875" type="line"/>
			<point x="1033.1815795898" y="1000.82421875" type="line"/>
			<point x="1033.1815795898" y="909.82421875" type="line"/>
			<point x="890.1815795898" y="874.82421875" type="line"/>
			<point x="736.0893554688" y="457.6856689453" type="line"/>
			<point x="590.4824829102" y="4.9755859375" type="line"/>
			<point x="400.0037231445" y="4.9755859375" type="line"/>
			<point x="318.5070800781" y="356.9777832031" type="line"/>
			<point x="108.571105957" y="874.82421875" type="line"/>
		</contour>
	</outline>
	<anchor name="bottom" x="513" y="0"/>
	<anchor name="top" x="513" y="1000"/>
</glyph>
<glyph name="w" format="2">
	<unicode hex="0077"/>
	<advance width="1484"/>
	<outline>
		<contour>
			<point x="412.1838378906" y="4.9755859375" type="line"/>
			<point x="264.9999389648" y="451.9794921875" type="line"/>
			<point x="98.571105957" y="875.82421875" type="line"/>
			<point x="-37.428894043" y="910.82421875" type="line"/>
			<point x="-37.428894043" y="1000.82421875" type="line"/>
			<point x="343.6465454102" y="1000.82421875" type="line"/>
			<point x="343.6465454102" y="923.82421875" type="line"/>
			<point x="223.6465454102" y="878.82421875" type="line"/>
			<point x="365.1500854492" y="435.1248779297" type="line"/>
			<point x="483" y="294" type="line"/>
			<point x="521" y="180" type="line"/>
			<point x="531" y="180" type="line"/>
			<point x="568" y="294" type="line"/>
			<point x="600.4071655273" y="346.4757080078" type="line"/>
			<point x="725" y="747" type="line"/>
			<point x="615.2401733398" y="878.82421875" type="line"/>
			<point x="516.2401733398" y="923.82421875" type="line"/>
			<point x="516.2401733398" y="1000.82421875" type="line"/>
			<point x="904.7152099609" y="1000.82421875" type="line"/>
			<point x="904.7152099609" y="923.82421875" type="line"/>
			<point x="789.7152099609" y="878.82421875" type="line"/>
			<point x="932.7487182617" y="378.1282348633" type="line"/>
			<point x="1045" y="294" type="line"/>
			<point x="1082" y="180" type="line"/>
			<point x="1092" y="180" type="line"/>
			<point x="1128" y="294" type="line"/>
			<point x="1136.114074707" y="442.5249633789" type="line"/>
			<point x="1281.4940185547" y="879.82421875" type="line"/>
			<point x="1157.4940185547" y="923.82421875" type="line"/>
			<point x="1157.4940185547" y="1000.82421875" type="line"/>
			<point x="1530.3602905273" y="1000.82421875" type="line"/>
			<point x="1530.3602905273" y="910.82421875" type="line"/>
			<point x="1386.3602905273" y="875.82421875" type="line"/>
			<point x="1308" y="496" type="line"/>
			<point x="1109.4959106445" y="4.9755859375" type="line"/>
			<point x="922.4417724609" y="4.9755859375" type="line"/>
			<point x="830" y="480" type="line"/>
			<point x="790" y="595" type="line"/>
			<point x="780" y="595" type="line"/>
			<point x="741" y="480" type="line"/>
			<point x="558.3621826172" y="4.9755859375" type="line"/>
		</contour>
	</outline>
	<anchor name="bottom" x="787" y="0"/>
	<anchor name="top" x="787" y="1000"/>
</glyph>
<glyph name="x" format="2">
	<unicode hex="0078"/>
	<advance width="832"/>
	<outline>
		<contour>
			<point x="-50.5759887695" y="0" type="line"/>
			<point x="-50.5759887695" y="90" type="line"/>
			<point x="88.4240112305" y="126" type="line"/>
			<point x="444" y="480" type="line"/>
			<point x="76.8862304688" y="874.82421875" type="line"/>
			<point x="-22.1137695312" y="909.82421875" type="line"/>
			<point x="-22.1137695312" y="1000.82421875" type="line"/>
			<point x="377.3856201172" y="1000.82421875" type="line"/>
			<point x="377.3856201172" y="909.82421875" type="line"/>
			<point x="277.3856201172" y="872.82421875" type="line"/>
			<point x="454" y="701" type="line"/>
			<point x="527" y="602" type="line"/>
			<point x="537" y="602" type="line"/>
			<point x="603" y="701" type="line"/>
			<point x="576.8107910156" y="879.82421875" type="line"/>
			<point x="467.8107910156" y="909.82421875" type="line"/>
			<point x="467.8107910156" y="1000.82421875" type="line"/>
			<point x="911.5734863281" y="1000.82421875" type="line"/>
			<point x="911.5734863281" y="909.82421875" type="line"/>
			<point x="732.5734863281" y="874.82421875" type="line"/>
			<point x="594" y="524" type="line"/>
			<point x="754.365234375" y="126" type="line"/>
			<point x="890.365234375" y="90" type="line"/>
			<point x="890.365234375" y="0" type="line"/>
			<point x="398.6937866211" y="0" type="line"/>
			<point x="398.6937866211" y="90" type="line"/>
			<point x="510.6937866211" y="125" type="line"/>
			<point x="584" y="305" type="line"/>
			<point x="511" y="402" type="line"/>
			<point x="501" y="402" type="line"/>
			<point x="439" y="305" type="line"/>
			<point x="271.2533569336" y="125" type="line"/>
			<point x="367.2533569336" y="90" type="line"/>
			<point x="367.2533569336" y="0" type="line"/>
		</contour>
	</outline>
	<anchor name="bottom" x="522" y="0"/>
	<anchor name="top" x="522" y="1000"/>
	<anchor name="cy_descender" x="1043" y="80"/>
</glyph>
<glyph name="y" format="2">
	<unicode hex="0079"/>
	<advance width="923"/>
	<outline>
		<contour>
			<point x="-11.3235473633" y="907.82421875" type="line"/>
			<point x="-11.3235473633" y="1000.82421875" type="line"/>
			<point x="430.9395141602" y="1000.82421875" type="line"/>
			<point x="430.9395141602" y="913.82421875" type="line"/>
			<point x="256.9395141602" y="880.82421875" type="line"/>
			<point x="408.9234619141" y="408.8529663086" type="line"/>
			<point x="415.8173828125" y="253.600769043" type="line"/>
			<point x="449.0672607422" y="111.0694580078" type="line"/>
			<point x="461.0672607422" y="111.0694580078" type="line"/>
			<point x="497.1270751953" y="248.4235839844" type="line"/>
			<point x="584.8110961914" y="496.4003295898" type="line"/>
			<point x="703.2672729492" y="878.82421875" type="line"/>
			<point x="573.2672729492" y="913.82421875" type="line"/>
			<point x="573.2672729492" y="1000.82421875" type="line"/>
			<point x="966.8369750977" y="1000.82421875" type="line"/>
			<point x="966.8369750977" y="907.82421875" type="line"/>
			<point x="831.8369750977" y="872.82421875" type="line"/>
			<point x="702.0259399414" y="479.6177978516" type="line"/>
			<point x="503.1161499023" y="-233.9840698242" type="line" smooth="yes"/>
			<point x="443.9445800781" y="-372.866027832"/>
			<point x="276.419921875" y="-498.2683105469"/>
			<point x="184.1639404297" y="-498.2683105469" type="qcurve"/>
			<point x="36.9782714844" y="-438" type="line"/>
			<point x="36.9782714844" y="-370.6281738281" type="line"/>
			<point x="258.5231933594" y="-370.6281738281" type="line" smooth="yes"/>
			<point x="311.0330810547" y="-370.6281738281"/>
			<point x="351.8124389648" y="-334.9302368164"/>
			<point x="380.009765625" y="-237.1424560547" type="qcurve" smooth="yes"/>
			<point x="129.6575927734" y="-6.7998046875" type="line"/>
			<point x="663.9470214844" y="-6.7998046875" type="line"/>
			<point x="290.6590576172" y="409.9680786133" type="line"/>
			<point x="134.6764526367" y="872.82421875" type="line"/>
		</contour>
	</outline>
	<anchor name="bottom" x="782" y="0"/>
	<anchor name="top" x="524" y="1000"/>
</glyph>
<glyph name="jdotless" format="2">
	<advance width="541"/>
	<outline>
		<contour>
			<point x="-48.2787475586" y="-476" type="qcurve"/>
			<point x="-48.2787475586" y="-368" type="line"/>
			<point x="84.1292724609" y="-373"/>
			<point x="191.9556884766" y="-233.8131713867"/>
			<point x="192.4556884766" y="-86.1868286133" type="qcurve" smooth="yes"/>
			<point x="192.4556884766" y="577" type="line"/>
			<point x="187.4556884766" y="850.82421875" type="line"/>
			<point x="51.4556884766" y="880.82421875" type="line"/>
			<point x="51.4556884766" y="970.82421875" type="line"/>
			<point x="244.4615478516" y="997.8486328125" type="line"/>
			<point x="321.4615478516" y="997.8486328125" type="line"/>
			<point x="364.4615478516" y="948.8486328125" type="line"/>
			<point x="358.4615478516" y="577" type="line"/>
			<point x="361.4615478516" y="-0.3657836914" type="line" smooth="yes"/>
			<point x="362.4615478516" y="-244.3657836914"/>
			<point x="181.3664550781" y="-498.8701782227"/>
		</contour>
	</outline>
	<anchor name="bottom" x="278" y="-436"/>
	<anchor name="top" x="278" y="1000"/>
	<anchor name="_liga" x="0" y="0"/>
</glyph>
